<svg width="268" height="32" viewBox="0 0 268 32" fill="none" xmlns="http://www.w3.org/2000/svg">
<g id="Group 2">
<path id="Rectangle Copy 4" fill-rule="evenodd" clip-rule="evenodd" d="M16.0274 0.405273H22.4082L7.85094 31.6217H0L16.0274 0.405273Z" fill="#F90102"/>
<path id="Rectangle Copy 5" fill-rule="evenodd" clip-rule="evenodd" d="M261.027 0.405273H267.408L252.851 31.6217H245L261.027 0.405273Z" fill="#0054D0"/>
<g id="The Drivers">
<path d="M31.2881 5.79983H52.3481V10.6238H44.6441V30.9998H38.9561V10.6238H31.2881V5.79983Z" fill="#202125"/>
<path d="M66.0528 11.4158C68.2368 11.4158 69.9648 12.0878 71.2368 13.4318C72.5328 14.7758 73.1808 16.5758 73.1808 18.8318V30.9998H67.6368V20.4518C67.6368 19.2278 67.2888 18.2678 66.5928 17.5718C65.9208 16.8518 64.9968 16.4918 63.8208 16.4918C62.4528 16.5158 61.3608 16.9958 60.5448 17.9318C59.7528 18.8438 59.3568 20.0198 59.3568 21.4598V30.9998H53.8128V4.28783H59.3568V15.0518C60.7008 12.6758 62.9328 11.4638 66.0528 11.4158Z" fill="#202125"/>
<path d="M86.2418 11.4518C89.3618 11.4518 91.7258 12.3518 93.3338 14.1518C94.9658 15.9518 95.7818 18.4598 95.7818 21.6758C95.7818 22.2518 95.7698 22.6958 95.7458 23.0078H81.8498C82.1618 24.2318 82.7618 25.1918 83.6498 25.8878C84.5378 26.5598 85.6058 26.8958 86.8538 26.8958C87.7658 26.8958 88.6418 26.7278 89.4818 26.3918C90.3218 26.0318 91.0778 25.5158 91.7498 24.8438L94.6658 27.7958C93.6818 28.8998 92.4818 29.7518 91.0658 30.3518C89.6738 30.9278 88.1138 31.2158 86.3858 31.2158C84.3458 31.2158 82.5578 30.8078 81.0218 29.9918C79.5098 29.1758 78.3338 28.0238 77.4938 26.5358C76.6778 25.0478 76.2698 23.3318 76.2698 21.3878C76.2698 19.4198 76.6898 17.6918 77.5298 16.2038C78.3698 14.6918 79.5458 13.5278 81.0578 12.7118C82.5698 11.8718 84.2978 11.4518 86.2418 11.4518ZM90.5618 19.7318C90.5138 18.4598 90.1058 17.4398 89.3378 16.6718C88.5698 15.9038 87.5498 15.5198 86.2778 15.5198C85.0778 15.5198 84.0698 15.9038 83.2538 16.6718C82.4618 17.4158 81.9578 18.4358 81.7418 19.7318H90.5618Z" fill="#202125"/>
<path d="M118.644 5.79983C121.212 5.79983 123.504 6.33983 125.52 7.41983C127.536 8.47583 129.096 9.96383 130.2 11.8838C131.328 13.7798 131.892 15.9518 131.892 18.3998C131.892 20.8478 131.316 23.0318 130.164 24.9518C129.036 26.8478 127.452 28.3358 125.412 29.4158C123.372 30.4718 121.044 30.9998 118.428 30.9998H107.952V5.79983H118.644ZM118.788 26.2118C120.18 26.2118 121.428 25.8878 122.532 25.2398C123.66 24.5678 124.536 23.6438 125.16 22.4678C125.784 21.2918 126.096 19.9478 126.096 18.4358C126.096 16.9238 125.76 15.5678 125.088 14.3678C124.44 13.1678 123.54 12.2438 122.388 11.5958C121.26 10.9238 119.976 10.5878 118.536 10.5878H113.64V26.2118H118.788Z" fill="#202125"/>
<path d="M141.056 15.1238C141.728 13.9238 142.604 13.0118 143.684 12.3878C144.764 11.7638 146.024 11.4398 147.464 11.4158V16.6358C147.272 16.6118 146.984 16.5998 146.6 16.5998C144.896 16.5998 143.54 17.0678 142.532 18.0038C141.548 18.9158 141.056 20.1398 141.056 21.6758V30.9998H135.512V11.6318H141.056V15.1238Z" fill="#202125"/>
<path d="M150.488 11.6318H156.032V30.9998H150.488V11.6318ZM153.224 3.02783C154.112 3.02783 154.832 3.31583 155.384 3.89183C155.96 4.46783 156.248 5.21183 156.248 6.12383C156.248 7.03583 155.96 7.77983 155.384 8.35583C154.832 8.93183 154.112 9.21983 153.224 9.21983C152.36 9.21983 151.64 8.93183 151.064 8.35583C150.512 7.75583 150.236 7.01183 150.236 6.12383C150.236 5.21183 150.512 4.46783 151.064 3.89183C151.64 3.31583 152.36 3.02783 153.224 3.02783Z" fill="#202125"/>
<path d="M158.58 11.6678L164.304 11.6318L168.876 25.7438L173.412 11.6318H178.92L171.612 30.9998H165.924L158.58 11.6678Z" fill="#202125"/>
<path d="M189.039 11.4518C192.159 11.4518 194.523 12.3518 196.131 14.1518C197.763 15.9518 198.579 18.4598 198.579 21.6758C198.579 22.2518 198.567 22.6958 198.543 23.0078H184.647C184.959 24.2318 185.559 25.1918 186.447 25.8878C187.335 26.5598 188.403 26.8958 189.651 26.8958C190.563 26.8958 191.439 26.7278 192.279 26.3918C193.119 26.0318 193.875 25.5158 194.547 24.8438L197.463 27.7958C196.479 28.8998 195.279 29.7518 193.863 30.3518C192.471 30.9278 190.911 31.2158 189.183 31.2158C187.143 31.2158 185.355 30.8078 183.819 29.9918C182.307 29.1758 181.131 28.0238 180.291 26.5358C179.475 25.0478 179.067 23.3318 179.067 21.3878C179.067 19.4198 179.487 17.6918 180.327 16.2038C181.167 14.6918 182.343 13.5278 183.855 12.7118C185.367 11.8718 187.095 11.4518 189.039 11.4518ZM193.359 19.7318C193.311 18.4598 192.903 17.4398 192.135 16.6718C191.367 15.9038 190.347 15.5198 189.075 15.5198C187.875 15.5198 186.867 15.9038 186.051 16.6718C185.259 17.4158 184.755 18.4358 184.539 19.7318H193.359Z" fill="#202125"/>
<path d="M207.747 15.1238C208.419 13.9238 209.295 13.0118 210.375 12.3878C211.455 11.7638 212.715 11.4398 214.155 11.4158V16.6358C213.963 16.6118 213.675 16.5998 213.291 16.5998C211.587 16.5998 210.231 17.0678 209.223 18.0038C208.239 18.9158 207.747 20.1398 207.747 21.6758V30.9998H202.203V11.6318H207.747V15.1238Z" fill="#202125"/>
<path d="M229.384 17.3198C228.328 16.7198 227.284 16.2638 226.252 15.9518C225.22 15.6158 224.296 15.4478 223.48 15.4478C222.808 15.4478 222.268 15.5678 221.86 15.8078C221.452 16.0478 221.248 16.4078 221.248 16.8878C221.248 17.4158 221.524 17.8238 222.076 18.1118C222.628 18.3998 223.528 18.7238 224.776 19.0838C226.144 19.4918 227.272 19.8998 228.16 20.3078C229.048 20.6918 229.816 21.2798 230.464 22.0718C231.112 22.8398 231.436 23.8598 231.436 25.1318C231.436 27.0518 230.692 28.5518 229.204 29.6318C227.74 30.6878 225.856 31.2158 223.552 31.2158C221.968 31.2158 220.444 30.9878 218.98 30.5318C217.516 30.0518 216.244 29.3798 215.164 28.5158L216.964 24.7718C217.948 25.5398 219.04 26.1398 220.24 26.5718C221.464 26.9798 222.616 27.1838 223.696 27.1838C224.44 27.1838 225.028 27.0638 225.46 26.8238C225.916 26.5598 226.144 26.1758 226.144 25.6718C226.144 25.1198 225.856 24.6878 225.28 24.3758C224.728 24.0638 223.828 23.7278 222.58 23.3678C221.26 22.9838 220.156 22.5998 219.268 22.2158C218.404 21.8318 217.66 21.2558 217.036 20.4878C216.412 19.6958 216.1 18.6758 216.1 17.4278C216.1 15.5078 216.82 14.0198 218.26 12.9638C219.7 11.9078 221.524 11.3798 223.732 11.3798C225.052 11.3798 226.372 11.5718 227.692 11.9558C229.012 12.3158 230.212 12.8438 231.292 13.5398L229.384 17.3198Z" fill="#202125"/>
</g>
</g>
</svg>
