<svg width="1239" height="61" viewBox="0 0 1239 61" fill="none" xmlns="http://www.w3.org/2000/svg">
<path d="M1 59.5H1238" stroke="#DCDCDC" stroke-linecap="square"/>
<path d="M14.32 18.272H4.576L2.44 23H1.12L8.848 6.2H10.072L17.8 23H16.48L14.32 18.272ZM13.864 17.24L9.448 7.544L5.056 17.24H13.864ZM38.9379 23L38.9139 8.624L31.8819 20.768H31.2819L24.2499 8.672V23H23.0499V6.2H24.0819L31.5939 19.184L39.1059 6.2H40.1139L40.1379 23H38.9379ZM58.5872 18.272H48.8432L46.7072 23H45.3872L53.1152 6.2H54.3392L62.0672 23H60.7472L58.5872 18.272ZM58.1312 17.24L53.7152 7.544L49.3232 17.24H58.1312ZM69.6893 7.304H63.6413V6.2H76.9613V7.304H70.9133V23H69.6893V7.304ZM93.7888 21.896V23H82.1968V6.2H93.4288V7.304H83.4208V13.928H92.3728V15.008H83.4208V21.896H93.7888ZM107.027 23.12C104.899 23.12 103.243 22.504 102.059 21.272C100.891 20.04 100.307 18.24 100.307 15.872V6.2H101.531V15.824C101.531 17.888 102.003 19.432 102.947 20.456C103.891 21.48 105.259 21.992 107.051 21.992C108.827 21.992 110.187 21.48 111.131 20.456C112.075 19.432 112.547 17.888 112.547 15.824V6.2H113.771V15.872C113.771 18.24 113.179 20.04 111.995 21.272C110.811 22.504 109.155 23.12 107.027 23.12ZM133.347 23L129.339 17.384C128.747 17.464 128.203 17.504 127.707 17.504H122.907V23H121.683V6.2H127.707C129.819 6.2 131.475 6.704 132.675 7.712C133.875 8.704 134.475 10.088 134.475 11.864C134.475 13.192 134.131 14.312 133.443 15.224C132.771 16.12 131.803 16.752 130.539 17.12L134.739 23H133.347ZM127.707 16.424C129.499 16.424 130.867 16.032 131.811 15.248C132.755 14.448 133.227 13.32 133.227 11.864C133.227 10.408 132.755 9.288 131.811 8.504C130.867 7.704 129.499 7.304 127.707 7.304H122.907V16.424H127.707ZM161.184 23L157.176 17.384C156.584 17.464 156.04 17.504 155.544 17.504H150.744V23H149.52V6.2H155.544C157.656 6.2 159.312 6.704 160.512 7.712C161.712 8.704 162.312 10.088 162.312 11.864C162.312 13.192 161.968 14.312 161.28 15.224C160.608 16.12 159.64 16.752 158.376 17.12L162.576 23H161.184ZM155.544 16.424C157.336 16.424 158.704 16.032 159.648 15.248C160.592 14.448 161.064 13.32 161.064 11.864C161.064 10.408 160.592 9.288 159.648 8.504C158.704 7.704 157.336 7.304 155.544 7.304H150.744V16.424H155.544ZM179.386 18.272H169.642L167.506 23H166.186L173.914 6.2H175.138L182.866 23H181.546L179.386 18.272ZM178.93 17.24L174.514 7.544L170.122 17.24H178.93ZM194.985 23.12C193.337 23.12 191.849 22.752 190.521 22.016C189.209 21.28 188.169 20.264 187.401 18.968C186.649 17.672 186.273 16.216 186.273 14.6C186.273 12.984 186.649 11.528 187.401 10.232C188.169 8.936 189.209 7.92 190.521 7.184C191.849 6.448 193.337 6.08 194.985 6.08C196.201 6.08 197.321 6.28 198.345 6.68C199.369 7.064 200.241 7.64 200.961 8.408L200.193 9.2C198.849 7.872 197.129 7.208 195.033 7.208C193.625 7.208 192.345 7.528 191.193 8.168C190.041 8.808 189.137 9.696 188.481 10.832C187.825 11.952 187.497 13.208 187.497 14.6C187.497 15.992 187.825 17.256 188.481 18.392C189.137 19.512 190.041 20.392 191.193 21.032C192.345 21.672 193.625 21.992 195.033 21.992C197.113 21.992 198.833 21.32 200.193 19.976L200.961 20.768C200.241 21.536 199.361 22.12 198.321 22.52C197.297 22.92 196.185 23.12 194.985 23.12ZM207.261 6.2H208.485V23H207.261V6.2ZM230.219 6.2V23H229.211L217.763 8.408V23H216.539V6.2H217.571L228.995 20.792V6.2H230.219ZM250.286 14.672H251.462V20.96C250.726 21.664 249.83 22.2 248.774 22.568C247.734 22.936 246.63 23.12 245.462 23.12C243.798 23.12 242.294 22.752 240.95 22.016C239.622 21.28 238.574 20.264 237.806 18.968C237.054 17.672 236.678 16.216 236.678 14.6C236.678 12.984 237.054 11.528 237.806 10.232C238.574 8.936 239.622 7.92 240.95 7.184C242.294 6.448 243.806 6.08 245.486 6.08C246.718 6.08 247.846 6.28 248.87 6.68C249.91 7.064 250.798 7.632 251.534 8.384L250.766 9.2C250.062 8.496 249.27 7.992 248.39 7.688C247.526 7.368 246.566 7.208 245.51 7.208C244.07 7.208 242.766 7.528 241.598 8.168C240.446 8.808 239.542 9.696 238.886 10.832C238.23 11.952 237.902 13.208 237.902 14.6C237.902 15.976 238.23 17.232 238.886 18.368C239.558 19.488 240.47 20.376 241.622 21.032C242.774 21.672 244.07 21.992 245.51 21.992C247.43 21.992 249.022 21.48 250.286 20.456V14.672Z" fill="black"/>
<path fill-rule="evenodd" clip-rule="evenodd" d="M5.91249 52L155 52L150.538 60H1L5.91249 52Z" fill="#0054D0" stroke="#979797"/>
</svg>
