<svg width="1239" height="60" viewBox="0 0 1239 60" fill="none" xmlns="http://www.w3.org/2000/svg">
<path d="M1 59.5H1238" stroke="#DCDCDC" stroke-linecap="square"/>
<path d="M9.832 6.224C11.912 6.224 13.52 6.712 14.656 7.688C15.792 8.648 16.36 10.016 16.36 11.792C16.36 13.632 15.792 15.056 14.656 16.064C13.52 17.072 11.912 17.576 9.832 17.576H5.296V23H3.64V6.224H9.832ZM9.76 16.088C11.36 16.088 12.592 15.728 13.456 15.008C14.336 14.272 14.776 13.216 14.776 11.84C14.776 10.496 14.344 9.472 13.48 8.768C12.616 8.064 11.376 7.712 9.76 7.712H5.296V16.088H9.76ZM32.9353 23L29.3113 17.528C28.7993 17.56 28.4073 17.576 28.1353 17.576H23.5273V23H21.8713V6.224H28.1353C30.2313 6.224 31.8473 6.712 32.9833 7.688C34.1353 8.648 34.7113 10.016 34.7113 11.792C34.7113 13.184 34.3753 14.344 33.7033 15.272C33.0313 16.2 32.0713 16.848 30.8233 17.216L34.8553 23H32.9353ZM28.1353 16.088C29.7353 16.088 30.9673 15.728 31.8313 15.008C32.6953 14.272 33.1273 13.216 33.1273 11.84C33.1273 10.496 32.6953 9.472 31.8313 8.768C30.9673 8.064 29.7353 7.712 28.1353 7.712H23.5273V16.088H28.1353ZM48.543 6.08C50.143 6.08 51.607 6.464 52.935 7.232C54.279 7.984 55.343 9.008 56.127 10.304C56.911 11.6 57.303 13.024 57.303 14.576C57.303 16.128 56.911 17.56 56.127 18.872C55.343 20.184 54.279 21.224 52.935 21.992C51.607 22.76 50.143 23.144 48.543 23.144C46.943 23.144 45.471 22.76 44.127 21.992C42.799 21.224 41.743 20.184 40.959 18.872C40.175 17.56 39.783 16.128 39.783 14.576C39.783 13.024 40.175 11.6 40.959 10.304C41.743 9.008 42.799 7.984 44.127 7.232C45.471 6.464 46.943 6.08 48.543 6.08ZM48.567 7.568C47.287 7.568 46.103 7.88 45.015 8.504C43.927 9.128 43.063 9.976 42.423 11.048C41.783 12.12 41.463 13.296 41.463 14.576C41.463 15.856 41.783 17.04 42.423 18.128C43.063 19.216 43.927 20.08 45.015 20.72C46.103 21.344 47.287 21.656 48.567 21.656C49.831 21.656 50.999 21.344 52.071 20.72C53.159 20.08 54.023 19.216 54.663 18.128C55.303 17.04 55.623 15.856 55.623 14.576C55.623 13.296 55.303 12.12 54.663 11.048C54.023 9.976 53.159 9.128 52.071 8.504C50.999 7.88 49.831 7.568 48.567 7.568ZM83.0353 23L79.4113 17.528C78.8993 17.56 78.5073 17.576 78.2353 17.576H73.6273V23H71.9713V6.224H78.2353C80.3313 6.224 81.9473 6.712 83.0833 7.688C84.2353 8.648 84.8113 10.016 84.8113 11.792C84.8113 13.184 84.4753 14.344 83.8033 15.272C83.1313 16.2 82.1713 16.848 80.9233 17.216L84.9553 23H83.0353ZM78.2353 16.088C79.8353 16.088 81.0673 15.728 81.9313 15.008C82.7953 14.272 83.2273 13.216 83.2273 11.84C83.2273 10.496 82.7953 9.472 81.9313 8.768C81.0673 8.064 79.8353 7.712 78.2353 7.712H73.6273V16.088H78.2353ZM104.043 23L102.051 18.536H92.739L90.771 23H88.995L96.555 6.224H98.283L105.843 23H104.043ZM93.387 17.048H101.403L97.371 7.976L93.387 17.048ZM122.594 9.632C121.922 8.976 121.146 8.464 120.266 8.096C119.386 7.728 118.474 7.544 117.53 7.544C116.234 7.544 115.042 7.856 113.954 8.48C112.882 9.104 112.026 9.96 111.386 11.048C110.762 12.12 110.45 13.296 110.45 14.576C110.45 15.856 110.762 17.032 111.386 18.104C112.026 19.176 112.882 20.032 113.954 20.672C115.042 21.296 116.234 21.608 117.53 21.608C118.458 21.608 119.362 21.432 120.242 21.08C121.122 20.712 121.906 20.208 122.594 19.568L123.602 20.648C122.77 21.416 121.818 22.024 120.746 22.472C119.674 22.92 118.578 23.144 117.458 23.144C115.874 23.144 114.418 22.76 113.09 21.992C111.762 21.224 110.706 20.184 109.922 18.872C109.154 17.56 108.77 16.128 108.77 14.576C108.77 13.024 109.162 11.6 109.946 10.304C110.73 9.008 111.786 7.984 113.114 7.232C114.458 6.464 115.922 6.08 117.506 6.08C118.642 6.08 119.738 6.296 120.794 6.728C121.85 7.144 122.778 7.728 123.578 8.48L122.594 9.632ZM129.431 6.224H131.087V23H129.431V6.224ZM150.736 6.224H152.368V23H150.616L140.224 8.792V23H138.568V6.224H140.32L150.736 20.432V6.224ZM171.654 14.792H173.118V20.936C172.302 21.624 171.35 22.168 170.262 22.568C169.19 22.952 168.094 23.144 166.974 23.144C165.39 23.144 163.926 22.76 162.582 21.992C161.254 21.224 160.198 20.184 159.414 18.872C158.63 17.56 158.238 16.128 158.238 14.576C158.238 13.024 158.63 11.6 159.414 10.304C160.198 9.008 161.262 7.984 162.606 7.232C163.966 6.464 165.446 6.08 167.046 6.08C168.182 6.08 169.278 6.28 170.334 6.68C171.406 7.08 172.35 7.64 173.166 8.36L172.206 9.536C171.518 8.896 170.726 8.408 169.83 8.072C168.934 7.72 168.006 7.544 167.046 7.544C165.75 7.544 164.558 7.864 163.47 8.504C162.382 9.128 161.518 9.976 160.878 11.048C160.238 12.12 159.918 13.296 159.918 14.576C159.918 15.872 160.238 17.064 160.878 18.152C161.518 19.224 162.382 20.08 163.47 20.72C164.574 21.344 165.774 21.656 167.07 21.656C167.87 21.656 168.662 21.528 169.446 21.272C170.246 21 170.982 20.624 171.654 20.144V14.792Z" fill="black"/>
<path fill-rule="evenodd" clip-rule="evenodd" d="M5.91249 52L155 52L150.538 60H1L5.91249 52Z" fill="#F90102"/>
</svg>
